<svg width="300" height="284" viewBox="0 0 300 284" fill="none" xmlns="http://www.w3.org/2000/svg">
<rect x="0.5" y="1.4834" width="299" height="281.983" rx="23.5" fill="white"/>
<rect x="0.5" y="1.4834" width="299" height="281.983" rx="23.5" stroke="#E1E2E6"/>
<path d="M247.441 161.241C247.441 163.613 245.577 165.476 243.153 165.476C240.753 165.476 238.839 163.613 238.839 161.241C238.839 158.919 240.753 157.057 243.153 157.057C245.577 157.058 247.441 158.921 247.441 161.241ZM239.912 161.241C239.912 163.104 241.291 164.583 243.18 164.583C245.017 164.583 246.371 163.104 246.371 161.267C246.371 159.404 245.017 157.898 243.154 157.898C241.291 157.898 239.912 159.406 239.912 161.241ZM242.49 163.436H241.52V159.251C241.901 159.175 242.439 159.124 243.127 159.124C243.919 159.124 244.275 159.251 244.582 159.431C244.813 159.608 244.991 159.94 244.991 160.349C244.991 160.809 244.634 161.166 244.125 161.318V161.37C244.531 161.521 244.761 161.828 244.889 162.39C245.016 163.027 245.092 163.283 245.196 163.436H244.15C244.022 163.283 243.944 162.901 243.818 162.415C243.741 161.956 243.485 161.752 242.949 161.752H242.49V163.436ZM242.515 161.063H242.974C243.51 161.063 243.944 160.885 243.944 160.452C243.944 160.068 243.665 159.811 243.05 159.811C242.796 159.811 242.617 159.838 242.515 159.865V161.063Z" fill="#1D63ED"/>
<path d="M82.9541 118.896C82.3537 118.309 81.6329 118.011 80.7693 118.011C79.8844 118.011 79.1637 118.309 78.5858 118.896C78.0067 119.482 77.7235 120.234 77.7235 121.129V136.087C74.7528 133.633 71.3246 132.395 67.4251 132.395C62.8927 132.395 59.017 134.031 55.8057 137.315C52.5944 140.587 51 144.546 51 149.188C51 153.831 52.6057 157.778 55.8057 161.062C59.017 164.334 62.8827 165.981 67.4251 165.981C71.9676 165.981 75.7906 164.345 79.0446 161.062C82.2559 157.822 83.8503 153.865 83.8503 149.188V121.129C83.849 120.234 83.5545 119.482 82.9541 118.896ZM76.915 153.235V153.257C76.3798 154.529 75.6477 155.645 74.7202 156.596C73.7926 157.558 72.6996 158.309 71.455 158.873C70.199 159.437 68.8666 159.714 67.4364 159.714C66.0062 159.714 64.6413 159.437 63.3853 158.873C62.1293 158.309 61.0476 157.558 60.1313 156.607C59.2138 155.656 58.4831 154.54 57.9479 153.268C57.4126 151.986 57.1394 150.626 57.1394 149.188C57.1394 147.751 57.4126 146.391 57.9479 145.108C58.4831 143.825 59.2151 142.72 60.1313 141.769C61.0489 140.819 62.1406 140.067 63.3853 139.503C64.6413 138.94 65.9849 138.663 67.4364 138.663C68.8892 138.663 70.199 138.94 71.455 139.503C72.7109 140.067 73.7926 140.819 74.7202 141.781C75.6477 142.743 76.3798 143.859 76.915 145.119C77.4502 146.391 77.7235 147.74 77.7235 149.177C77.7222 150.614 77.4502 151.974 76.915 153.235Z" fill="#1D63ED"/>
<path d="M218.653 142.743C217.856 140.752 216.641 138.951 215.048 137.336L215.027 137.325C211.783 134.053 207.905 132.405 203.408 132.405C198.908 132.405 194.998 134.041 191.787 137.325C188.576 140.597 186.982 144.556 186.982 149.198C186.982 153.841 188.588 157.788 191.787 161.072C194.997 164.344 198.865 165.991 203.408 165.991C207.534 165.991 211.105 164.632 214.142 161.912C214.73 161.293 215.027 160.542 215.027 159.667C215.027 158.793 214.744 158.02 214.163 157.434C213.586 156.847 212.854 156.549 211.98 156.549C211.217 156.572 210.538 156.826 209.961 157.335C209.043 158.13 208.049 158.739 206.969 159.138C205.887 159.536 204.707 159.735 203.42 159.735C202.283 159.735 201.191 159.558 200.155 159.194C199.116 158.829 198.146 158.331 197.282 157.679C196.407 157.027 195.655 156.254 195.011 155.335C194.366 154.428 193.875 153.423 193.548 152.318H216.777C217.638 152.318 218.359 152.019 218.96 151.433C219.562 150.847 219.857 150.095 219.857 149.2C219.854 146.877 219.448 144.722 218.653 142.743ZM193.524 146.081C193.841 144.987 194.321 143.981 194.966 143.064C195.611 142.157 196.374 141.372 197.248 140.72C198.133 140.067 199.093 139.57 200.152 139.205C201.21 138.841 202.291 138.664 203.408 138.664C204.521 138.664 205.602 138.841 206.649 139.205C207.698 139.57 208.661 140.067 209.522 140.72C210.397 141.372 211.16 142.145 211.804 143.064C212.459 143.971 212.953 144.977 213.291 146.081H193.524Z" fill="#1D63ED"/>
<path d="M247.198 134.506C246.652 133.965 245.964 133.544 245.134 133.235C244.304 132.925 243.398 132.715 242.404 132.593C241.421 132.472 240.492 132.417 239.631 132.417C237.675 132.417 235.841 132.737 234.116 133.379C232.39 134.02 230.796 134.937 229.332 136.131V135.535C229.332 134.673 229.037 133.942 228.435 133.335C227.836 132.727 227.126 132.418 226.286 132.418C225.443 132.418 224.701 132.727 224.102 133.335C223.501 133.942 223.206 134.684 223.206 135.535V162.876C223.206 163.738 223.501 164.468 224.102 165.075C224.701 165.683 225.422 165.992 226.286 165.992C227.147 165.992 227.846 165.683 228.435 165.075C229.037 164.468 229.332 163.726 229.332 162.876V149.199C229.332 147.74 229.605 146.37 230.14 145.087C230.675 143.804 231.407 142.699 232.335 141.748C233.265 140.797 234.357 140.046 235.6 139.503C236.856 138.951 238.19 138.674 239.621 138.674C241.05 138.674 242.404 138.928 243.64 139.426C244.13 139.647 244.557 139.758 244.928 139.758C245.354 139.758 245.758 139.68 246.129 139.515C246.5 139.349 246.828 139.127 247.102 138.841C247.375 138.554 247.592 138.222 247.756 137.835C247.92 137.459 248.008 137.049 248.008 136.607C248.008 135.745 247.735 135.049 247.189 134.506H247.198Z" fill="#1D63ED"/>
<path d="M118.969 142.754C118.172 140.775 116.981 138.962 115.377 137.326C112.134 134.054 108.257 132.406 103.757 132.406C99.2575 132.406 95.3493 134.043 92.138 137.326C88.9266 140.598 87.3335 144.557 87.3335 149.199C87.3335 153.842 88.9392 157.79 92.138 161.073C95.3493 164.345 99.2149 165.992 103.757 165.992C108.3 165.992 112.123 164.356 115.377 161.073C118.588 157.833 120.183 153.876 120.183 149.199C120.16 146.877 119.755 144.732 118.969 142.754ZM113.247 153.235V153.257C112.712 154.529 111.98 155.645 111.052 156.596C110.125 157.558 109.032 158.309 107.787 158.873C106.543 159.437 105.199 159.714 103.769 159.714C102.338 159.714 100.973 159.437 99.7175 158.873C98.4616 158.309 97.3799 157.558 96.4636 156.607C95.5461 155.656 94.8153 154.54 94.2801 153.268C93.7449 151.986 93.4716 150.626 93.4716 149.188C93.4716 147.751 93.7449 146.391 94.2801 145.108C94.8153 143.825 95.5473 142.72 96.4636 141.769C97.3811 140.819 98.4729 140.067 99.7175 139.503C100.973 138.94 102.317 138.663 103.769 138.663C105.22 138.663 106.531 138.94 107.787 139.503C109.043 140.067 110.125 140.819 111.052 141.781C111.98 142.743 112.712 143.859 113.247 145.119C113.782 146.391 114.056 147.74 114.056 149.177C114.056 150.614 113.782 151.974 113.247 153.235Z" fill="#1D63ED"/>
<path d="M184.666 135.523C184.666 135.104 184.578 134.705 184.415 134.329C184.251 133.954 184.033 133.612 183.76 133.324C183.487 133.037 183.16 132.804 182.788 132.65C182.417 132.495 182.014 132.407 181.588 132.407C180.976 132.407 180.43 132.562 179.949 132.883L162.411 144.547V121.151C162.411 120.266 162.117 119.526 161.516 118.917C160.916 118.309 160.206 118 159.365 118C158.524 118 157.782 118.309 157.181 118.917C156.58 119.525 156.286 120.266 156.286 121.151V162.831C156.286 163.692 156.58 164.434 157.181 165.053C157.781 165.672 158.502 165.981 159.365 165.981C160.228 165.981 160.927 165.672 161.516 165.053C162.117 164.434 162.411 163.692 162.411 162.831V152.007L165.994 149.608L179.546 165.163C180.092 165.704 180.78 165.97 181.599 165.97C182.025 165.97 182.429 165.892 182.8 165.727C183.171 165.572 183.499 165.34 183.771 165.053C184.044 164.766 184.263 164.434 184.427 164.047C184.591 163.671 184.677 163.262 184.677 162.853C184.677 162.035 184.394 161.305 183.825 160.665L171.212 146.148L183.497 137.989C184.283 137.448 184.665 136.618 184.665 135.501V135.523H184.666Z" fill="#1D63ED"/>
<path d="M132.74 141.748C133.678 140.797 134.771 140.046 136.027 139.503C137.283 138.951 138.616 138.674 140.046 138.674C141.335 138.674 142.525 138.896 143.628 139.337C144.72 139.779 145.769 140.432 146.762 141.282C147.351 141.757 148.018 142 148.76 142C149.645 142 150.366 141.702 150.945 141.104C151.524 140.507 151.807 139.755 151.807 138.859C151.807 137.964 151.457 137.134 150.748 136.494C147.733 133.775 144.164 132.414 140.046 132.414C135.514 132.414 131.638 134.05 128.427 137.334C125.215 140.606 123.622 144.564 123.622 149.207C123.622 153.851 125.228 157.797 128.427 161.081C131.638 164.353 135.503 166 140.046 166C144.152 166 147.723 164.641 150.748 161.92C151.392 161.257 151.721 160.494 151.721 159.61C151.721 158.725 151.436 157.962 150.858 157.376C150.279 156.79 149.548 156.492 148.675 156.492C147.933 156.514 147.287 156.735 146.742 157.154C145.759 158.016 144.733 158.658 143.63 159.089C142.538 159.52 141.347 159.73 140.047 159.73C138.617 159.73 137.285 159.453 136.029 158.901C134.773 158.348 133.681 157.597 132.741 156.657C131.802 155.718 131.059 154.59 130.524 153.319C129.988 152.036 129.715 150.665 129.715 149.206C129.715 147.746 129.988 146.376 130.524 145.093C131.059 143.81 131.801 142.705 132.741 141.754V141.748H132.74Z" fill="#1D63ED"/>
</svg>
